;Coverted using MIDI2ASM
;Code by TriteHexagon
;Version 5.2.0 (16-Nov-2022)
;Visit github.com/TriteHexagon/Midi2ASM-Converter for up-to-date versions.

; ============================================================================================================

Music_Koukan:
	musicheader 4, 1, Music_Koukan_Ch1
	musicheader 1, 2, Music_Koukan_Ch2
	musicheader 1, 3, Music_Koukan_Ch3
	musicheader 1, 4, Music_Koukan_Ch4

Music_Koukan_Ch1:
	volume $77
	dutycycle $2
	notetype 12, $a7
;Bar 1
	octave 4
	intensity $97
	note E_, 1
	note __, 1
	octave 3
	note B_, 1
	note __, 1
	octave 4
	note C#, 1
	note __, 1
	octave 3
	note B_, 1
	octave 4
	note E_, 1
	note __, 4
	note E_, 2
	note __, 2
;Bar 2
	note D#, 1
	note __, 1
	octave 3
	note B_, 1
	note __, 1
	octave 4
	note C#, 1
	note __, 1
	octave 3
	note B_, 1
	octave 4
	note D#, 1
	note __, 8
;Bar 3
	note C#, 1
	note __, 1
	note D#, 1
	note __, 1
	note C#, 1
	octave 3
	note B_, 1
	note __, 2
	octave 4
	note C#, 1
	note __, 1
	note D#, 1
	note __, 1
	note C#, 1
	octave 3
	note B_, 1
	note __, 2
;Bar 4
	octave 4
	note D#, 4
	note C#, 4
	note D#, 1
	note E_, 1
	note __, 1
	note F#, 1
	note __, 1
	octave 3
	note B_, 2
	note __, 1
;Bar 5
	octave 4
	note E_, 1
	note __, 1
	octave 3
	note B_, 1
	note __, 1
	octave 4
	note C#, 1
	note __, 1
	octave 3
	note B_, 1
	octave 4
	note E_, 1
	note __, 4
	note E_, 2
	note __, 2
;Bar 6
	note D#, 1
	note __, 1
	octave 3
	note B_, 1
	note __, 1
	octave 4
	note C#, 1
	note __, 1
	octave 3
	note B_, 1
	octave 4
	note D#, 1
	note __, 8
;Bar 7
	note C#, 1
	note __, 1
	note D#, 1
	note __, 1
	note C#, 1
	octave 3
	note B_, 1
	note __, 2
	octave 4
	note C#, 1
	note __, 1
	note D#, 1
	note __, 1
	note E_, 1
	note F#, 1
	note __, 2
;Bar 8
	note F#, 4
	note E_, 4
	note F#, 1
	note G#, 1
	note __, 1
	note F#, 1
	note __, 1
	note D#, 2
	note __, 3
;Bar 9
	octave 3
	note A_, 2
	note __, 2
	note B_, 2
	note __, 2
	octave 4
	note C#, 2
	note __, 2
	note E_, 2
;Bar 10
	note F#, 8
	note __, 2
	note E_, 2
	note D#, 2
	note C#, 2
;Bar 11
	note __, 2
	octave 3
	note G#, 2
	note __, 2
	note A_, 2
	note __, 2
	note B_, 2
	note __, 2
	octave 4
	note D#, 2
;Bar 12
	note E_, 8
	note __, 2
	note D#, 2
	note C#, 2
	note D#, 2
;Bar 13
	octave 3
	note A_, 2
	note G#, 2
	note A_, 2
	note A#, 1
	note B_, 1
	note __, 4
	note F#, 2
	note __, 2
;Bar 14
	note B_, 2
	note A#, 2
	note B_, 2
	octave 4
	note C_, 1
	note C#, 1
	note __, 8
;Bar 15
	octave 3
	note F#, 2
	note F_, 2
	note F#, 2
	note G#, 2
	note A_, 2
	octave 4
	note E_, 2
	note D#, 2
	note C#, 2
;Bar 16
	octave 3
	note B_, 2
	note __, 6
	note B_, 2
	note __, 6
;Bar 17
	octave 4
	note E_, 1
	note __, 1
	octave 3
	note B_, 1
	note __, 1
	octave 4
	note C#, 1
	note __, 1
	octave 3
	note B_, 1
	octave 4
	note E_, 1
	note __, 4
	note E_, 2
	note __, 2
;Bar 18
	note D#, 1
	note __, 1
	octave 3
	note B_, 1
	note __, 1
	octave 4
	note C#, 1
	note __, 1
	octave 3
	note B_, 1
	octave 4
	note D#, 1
	note __, 8
;Bar 19
	note C#, 1
	note __, 1
	note D#, 1
	note __, 1
	note C#, 1
	octave 3
	note B_, 1
	note __, 2
	octave 4
	note C#, 1
	note __, 1
	note D#, 1
	note __, 1
	note C#, 1
	octave 3
	note B_, 1
	note __, 2
;Bar 20
	octave 4
	note D#, 4
	note C#, 4
	note D#, 1
	note E_, 1
	note __, 1
	note F#, 1
	note __, 1
	octave 3
	note B_, 2
	note __, 1
;Bar 21
	octave 4
	note E_, 1
	note __, 1
	octave 3
	note B_, 1
	note __, 1
	octave 4
	note C#, 1
	note __, 1
	octave 3
	note B_, 1
	octave 4
	note E_, 1
	note __, 4
	note E_, 2
	note __, 2
;Bar 22
	note D#, 1
	note __, 1
	octave 3
	note B_, 1
	note __, 1
	octave 4
	note C#, 1
	note __, 1
	octave 3
	note B_, 1
	octave 4
	note D#, 1
	note __, 8
;Bar 23
	note C#, 1
	note __, 1
	note D#, 1
	note __, 1
	note C#, 1
	octave 3
	note B_, 1
	note __, 2
	octave 4
	note C#, 1
	note __, 1
	note D#, 1
	note __, 1
	note E_, 1
	note F#, 1
	note __, 2
;Bar 24
	note F#, 4
	note E_, 4
	note F#, 1
	note G#, 1
	note __, 1
	note F#, 1
	note __, 1
	note D#, 2
	note __, 3
;Bar 25
	octave 3
	note A_, 2
	note __, 2
	note B_, 2
	note __, 2
	octave 4
	note C#, 2
	note __, 2
	note E_, 2
;Bar 26
	note F#, 8
	note __, 2
	note E_, 2
	note D#, 2
	note C#, 2
;Bar 27
	note __, 2
	octave 3
	note G#, 2
	note __, 2
	note A_, 2
	note __, 2
	note B_, 2
	note __, 2
	octave 4
	note D#, 2
;Bar 28
	note E_, 8
	note __, 2
	note D#, 2
	note C#, 2
	note D#, 2
;Bar 29
	octave 3
	note A_, 2
	note G#, 2
	note A_, 2
	note A#, 1
	note B_, 1
	note __, 4
	note F#, 2
	note __, 2
;Bar 30
	note B_, 2
	note A#, 2
	note B_, 2
	octave 4
	note C_, 1
	note C#, 1
	note __, 8
;Bar 31
	octave 3
	note F#, 2
	note F_, 2
	note F#, 2
	note G#, 2
	note A_, 2
	octave 4
	note E_, 2
	note D#, 2
	note C#, 2
;Bar 32
	octave 3
	note B_, 2
	note __, 6
	note B_, 2
	note __, 6
;Bar 33
	octave 4
	note E_, 1
	note __, 1
	octave 3
	note B_, 1
	note __, 1
	octave 4
	note C#, 1
	note __, 1
	octave 3
	note B_, 1
	octave 4
	note E_, 1
	note __, 4
	note E_, 2
	note __, 2
;Bar 34
	note D#, 1
	note __, 1
	octave 3
	note B_, 1
	note __, 1
	octave 4
	note C#, 1
	note __, 1
	octave 3
	note B_, 1
	octave 4
	note D#, 1
	note __, 8
;Bar 35
	note C#, 1
	note __, 1
	note D#, 1
	note __, 1
	note C#, 1
	octave 3
	note B_, 1
	note __, 2
	octave 4
	note C#, 1
	note __, 1
	note D#, 1
	note __, 1
	note C#, 1
	octave 3
	note B_, 1
	note __, 2
;Bar 36
	octave 4
	note D#, 4
	note C#, 4
	note D#, 1
	note E_, 1
	note __, 1
	note F#, 1
	note __, 1
	octave 3
	note B_, 2
	note __, 1
;Bar 37
	octave 4
	note E_, 1
	note __, 1
	octave 3
	note B_, 1
	note __, 1
	octave 4
	note C#, 1
	note __, 1
	octave 3
	note B_, 1
	octave 4
	note E_, 1
	note __, 4
	note E_, 2
	note __, 2
;Bar 38
	note D#, 1
	note __, 1
	octave 3
	note B_, 1
	note __, 1
	octave 4
	note C#, 1
	note __, 1
	octave 3
	note B_, 1
	octave 4
	note D#, 1
	note __, 8
;Bar 39
	note C#, 1
	note __, 1
	note D#, 1
	note __, 1
	note C#, 1
	octave 3
	note B_, 1
	note __, 2
	octave 4
	note C#, 1
	note __, 1
	note D#, 1
	note __, 1
	note E_, 1
	note F#, 1
	note __, 2
;Bar 40
	note F#, 4
	note E_, 4
	note F#, 1
	note G#, 1
	note __, 1
	note F#, 1
	note __, 1
	note D#, 2
	note __, 3
;Bar 41
	octave 3
	note A_, 2
	note __, 2
	note B_, 2
	note __, 2
	octave 4
	note C#, 2
	note __, 2
	note E_, 2
;Bar 42
	note F#, 8
	note __, 2
	note E_, 2
	note D#, 2
	note C#, 2
;Bar 43
	note __, 2
	octave 3
	note G#, 2
	note __, 2
	note A_, 2
	note __, 2
	note B_, 2
	note __, 2
	octave 4
	note D#, 2
;Bar 44
	note E_, 8
	note __, 2
	note D#, 2
	note C#, 2
	note D#, 2
;Bar 45
	octave 3
	note A_, 2
	note G#, 2
	note A_, 2
	note A#, 1
	note B_, 1
	note __, 4
	note F#, 2
	note __, 2
;Bar 46
	note B_, 2
	note A#, 2
	note B_, 2
	octave 4
	note C_, 1
	note C#, 1
	note __, 8
;Bar 47
	octave 3
	note F#, 2
	note F_, 2
	note F#, 2
	note G#, 2
	note A_, 2
	octave 4
	note E_, 2
	note D#, 2
	note C#, 2
;Bar 48
	octave 3
	note B_, 2
	note __, 6
	note B_, 2
	note __, 6
;Bar 49
	octave 4
	note E_, 1
	note __, 1
	octave 3
	note B_, 1
	note __, 1
	octave 4
	note C#, 1
	note __, 1
	octave 3
	note B_, 1
	octave 4
	note E_, 1
	note __, 4
	note E_, 2
	note __, 2
;Bar 50
	note D#, 1
	note __, 1
	octave 3
	note B_, 1
	note __, 1
	octave 4
	note C#, 1
	note __, 1
	octave 3
	note B_, 1
	octave 4
	note D#, 1
	note __, 8
;Bar 51
	note C#, 1
	note __, 1
	note D#, 1
	note __, 1
	note C#, 1
	octave 3
	note B_, 1
	note __, 2
	octave 4
	note C#, 1
	note __, 1
	note D#, 1
	note __, 1
	note C#, 1
	octave 3
	note B_, 1
	note __, 2
;Bar 52
	octave 4
	note D#, 4
	note C#, 4
	note D#, 1
	note E_, 1
	note __, 1
	note F#, 1
	note __, 1
	octave 3
	note B_, 2
	note __, 1
;Bar 53
	octave 4
	note E_, 1
	note __, 1
	octave 3
	note B_, 1
	note __, 1
	octave 4
	note C#, 1
	note __, 1
	octave 3
	note B_, 1
	octave 4
	note E_, 1
	note __, 4
	note E_, 2
	note __, 2
;Bar 54
	note D#, 1
	note __, 1
	octave 3
	note B_, 1
	note __, 1
	octave 4
	note C#, 1
	note __, 1
	octave 3
	note B_, 1
	octave 4
	note D#, 1
	note __, 8
;Bar 55
	note C#, 1
	note __, 1
	note D#, 1
	note __, 1
	note C#, 1
	octave 3
	note B_, 1
	note __, 2
	octave 4
	note C#, 1
	note __, 1
	note D#, 1
	note __, 1
	note E_, 1
	note F#, 1
	note __, 2
;Bar 56
	note F#, 4
	note E_, 4
	note F#, 1
	note G#, 1
	note __, 1
	note F#, 1
	note __, 1
	note D#, 2
	note __, 3
;Bar 57
	octave 3
	note A_, 2
	note __, 2
	note B_, 2
	note __, 2
	octave 4
	note C#, 2
	note __, 2
	note E_, 2
;Bar 58
	note F#, 8
	note __, 2
	note E_, 2
	note D#, 2
	note C#, 2
;Bar 59
	note __, 2
	octave 3
	note G#, 2
	note __, 2
	note A_, 2
	note __, 2
	note B_, 2
	note __, 2
	octave 4
	note D#, 2
;Bar 60
	note E_, 8
	note __, 2
	note D#, 2
	note C#, 2
	note D#, 2
;Bar 61
	octave 3
	note A_, 2
	note G#, 2
	note A_, 2
	note A#, 1
	note B_, 1
	note __, 4
	note F#, 2
	note __, 2
;Bar 62
	note B_, 2
	note A#, 2
	note B_, 2
	octave 4
	note C_, 1
	note C#, 1
	note __, 8
;Bar 63
	octave 3
	note F#, 2
	note F_, 2
	note F#, 2
	note G#, 2
	note A_, 2
	octave 4
	note E_, 2
	note D#, 2
	note C#, 2
;Bar 64
	octave 3
	note B_, 2
	note __, 6
	note B_, 8
	endchannel

; ============================================================================================================

Music_Koukan_Ch2:
	dutycycle $1
	notetype 12, $a7
;Bar 1
	octave 4
	intensity $97
	note E_, 1
	note __, 1
	note G#, 1
	note __, 1
	note F#, 1
	note __, 1
	note A_, 1
	note G#, 1
	note __, 8
;Bar 2
	note D#, 1
	note __, 1
	note F#, 1
	note __, 1
	note E_, 1
	note __, 1
	note G#, 1
	note F#, 1
	note __, 4
	octave 3
	note B_, 2
	note __, 2
;Bar 3
	octave 4
	note C#, 1
	note __, 1
	note D#, 1
	note __, 1
	note E_, 1
	note F#, 1
	note __, 2
	note C#, 1
	note __, 1
	note D#, 1
	note __, 1
	note E_, 1
	note F#, 1
	note __, 2
;Bar 4
	note F#, 4
	note E_, 4
	note F#, 1
	note G#, 1
	note __, 1
	note F#, 1
	note __, 1
	note D#, 2
	note __, 1
;Bar 5
	note E_, 1
	note __, 1
	note G#, 1
	note __, 1
	note F#, 1
	note __, 1
	note A_, 1
	note G#, 1
	note __, 8
;Bar 6
	note D#, 1
	note __, 1
	note F#, 1
	note __, 1
	note E_, 1
	note __, 1
	note G#, 1
	note F#, 1
	note __, 4
	octave 3
	note B_, 2
	note __, 2
;Bar 7
	octave 4
	note C#, 1
	note __, 1
	note D#, 1
	note __, 1
	note E_, 1
	note F#, 1
	note __, 2
	note C#, 1
	note __, 1
	note D#, 1
	note __, 1
	note E_, 1
	note F#, 1
	note __, 2
;Bar 8
	note F#, 4
	note E_, 4
	note F#, 1
	note G#, 1
	note __, 1
	note B_, 1
	note __, 1
	note F#, 2
	note __, 1
;Bar 9
	note C#, 2
	note __, 2
	note D#, 2
	note __, 2
	note E_, 2
	note __, 2
	note G#, 2
	note __, 2
;Bar 10
	note D#, 8
	note __, 2
	note E_, 2
	note D#, 2
	note C#, 2
;Bar 11
	octave 3
	note B_, 2
	note __, 2
	octave 4
	note C#, 2
	note __, 2
	note D#, 2
	note __, 2
	note F#, 2
	note __, 2
;Bar 12
	note C#, 8
	note __, 2
	note D#, 2
	note C#, 2
	octave 3
	note B_, 2
;Bar 13
	note A_, 2
	note G#, 2
	note A_, 2
	note G#, 1
	note F#, 1
	note __, 8
;Bar 14
	note B_, 2
	note A#, 2
	note B_, 2
	note A_, 1
	note G#, 1
	note __, 4
	note G#, 2
	note __, 2
;Bar 15
	note F#, 2
	note F_, 2
	note F#, 2
	note G#, 2
	note A_, 2
	note E_, 2
	note C#, 2
	note E_, 2
;Bar 16
	note F#, 2
	note __, 6
	note D#, 2
	note __, 6
;Bar 17
	octave 4
	note E_, 1
	note __, 1
	note G#, 1
	note __, 1
	note F#, 1
	note __, 1
	note A_, 1
	note G#, 1
	note __, 8
;Bar 18
	note D#, 1
	note __, 1
	note F#, 1
	note __, 1
	note E_, 1
	note __, 1
	note G#, 1
	note F#, 1
	note __, 4
	octave 3
	note B_, 2
	note __, 2
;Bar 19
	octave 4
	note C#, 1
	note __, 1
	note D#, 1
	note __, 1
	note E_, 1
	note F#, 1
	note __, 2
	note C#, 1
	note __, 1
	note D#, 1
	note __, 1
	note E_, 1
	note F#, 1
	note __, 2
;Bar 20
	note F#, 4
	note E_, 4
	note F#, 1
	note G#, 1
	note __, 1
	note F#, 1
	note __, 1
	note D#, 2
	note __, 1
;Bar 21
	note E_, 1
	note __, 1
	note G#, 1
	note __, 1
	note F#, 1
	note __, 1
	note A_, 1
	note G#, 1
	note __, 8
;Bar 22
	note D#, 1
	note __, 1
	note F#, 1
	note __, 1
	note E_, 1
	note __, 1
	note G#, 1
	note F#, 1
	note __, 4
	octave 3
	note B_, 2
	note __, 2
;Bar 23
	octave 4
	note C#, 1
	note __, 1
	note D#, 1
	note __, 1
	note E_, 1
	note F#, 1
	note __, 2
	note C#, 1
	note __, 1
	note D#, 1
	note __, 1
	note E_, 1
	note F#, 1
	note __, 2
;Bar 24
	note F#, 4
	note E_, 4
	note F#, 1
	note G#, 1
	note __, 1
	note B_, 1
	note __, 1
	note F#, 2
	note __, 1
;Bar 25
	note C#, 2
	note __, 2
	note D#, 2
	note __, 2
	note E_, 2
	note __, 2
	note G#, 2
	note __, 2
;Bar 26
	note D#, 8
	note __, 2
	note E_, 2
	note D#, 2
	note C#, 2
;Bar 27
	octave 3
	note B_, 2
	note __, 2
	octave 4
	note C#, 2
	note __, 2
	note D#, 2
	note __, 2
	note F#, 2
	note __, 2
;Bar 28
	note C#, 8
	note __, 2
	note D#, 2
	note C#, 2
	octave 3
	note B_, 2
;Bar 29
	note A_, 2
	note G#, 2
	note A_, 2
	note G#, 1
	note F#, 1
	note __, 8
;Bar 30
	note B_, 2
	note A#, 2
	note B_, 2
	note A_, 1
	note G#, 1
	note __, 4
	note G#, 2
	note __, 2
;Bar 31
	note F#, 2
	note F_, 2
	note F#, 2
	note G#, 2
	note A_, 2
	note E_, 2
	note C#, 2
	note E_, 2
;Bar 32
	note F#, 2
	note __, 6
	note D#, 2
	note __, 6
;Bar 33
	octave 4
	note E_, 1
	note __, 1
	note G#, 1
	note __, 1
	note F#, 1
	note __, 1
	note A_, 1
	note G#, 1
	note __, 8
;Bar 34
	note D#, 1
	note __, 1
	note F#, 1
	note __, 1
	note E_, 1
	note __, 1
	note G#, 1
	note F#, 1
	note __, 4
	octave 3
	note B_, 2
	note __, 2
;Bar 35
	octave 4
	note C#, 1
	note __, 1
	note D#, 1
	note __, 1
	note E_, 1
	note F#, 1
	note __, 2
	note C#, 1
	note __, 1
	note D#, 1
	note __, 1
	note E_, 1
	note F#, 1
	note __, 2
;Bar 36
	note F#, 4
	note E_, 4
	note F#, 1
	note G#, 1
	note __, 1
	note F#, 1
	note __, 1
	note D#, 2
	note __, 1
;Bar 37
	note E_, 1
	note __, 1
	note G#, 1
	note __, 1
	note F#, 1
	note __, 1
	note A_, 1
	note G#, 1
	note __, 8
;Bar 38
	note D#, 1
	note __, 1
	note F#, 1
	note __, 1
	note E_, 1
	note __, 1
	note G#, 1
	note F#, 1
	note __, 4
	octave 3
	note B_, 2
	note __, 2
;Bar 39
	octave 4
	note C#, 1
	note __, 1
	note D#, 1
	note __, 1
	note E_, 1
	note F#, 1
	note __, 2
	note C#, 1
	note __, 1
	note D#, 1
	note __, 1
	note E_, 1
	note F#, 1
	note __, 2
;Bar 40
	note F#, 4
	note E_, 4
	note F#, 1
	note G#, 1
	note __, 1
	note B_, 1
	note __, 1
	note F#, 2
	note __, 1
;Bar 41
	note C#, 2
	note __, 2
	note D#, 2
	note __, 2
	note E_, 2
	note __, 2
	note G#, 2
	note __, 2
;Bar 42
	note D#, 8
	note __, 2
	note E_, 2
	note D#, 2
	note C#, 2
;Bar 43
	octave 3
	note B_, 2
	note __, 2
	octave 4
	note C#, 2
	note __, 2
	note D#, 2
	note __, 2
	note F#, 2
	note __, 2
;Bar 44
	note C#, 8
	note __, 2
	note D#, 2
	note C#, 2
	octave 3
	note B_, 2
;Bar 45
	note A_, 2
	note G#, 2
	note A_, 2
	note G#, 1
	note F#, 1
	note __, 8
;Bar 46
	note B_, 2
	note A#, 2
	note B_, 2
	note A_, 1
	note G#, 1
	note __, 4
	note G#, 2
	note __, 2
;Bar 47
	note F#, 2
	note F_, 2
	note F#, 2
	note G#, 2
	note A_, 2
	note E_, 2
	note C#, 2
	note E_, 2
;Bar 48
	note F#, 2
	note __, 6
	note D#, 2
	note __, 6
;Bar 49
	octave 4
	note E_, 1
	note __, 1
	note G#, 1
	note __, 1
	note F#, 1
	note __, 1
	note A_, 1
	note G#, 1
	note __, 8
;Bar 50
	note D#, 1
	note __, 1
	note F#, 1
	note __, 1
	note E_, 1
	note __, 1
	note G#, 1
	note F#, 1
	note __, 4
	octave 3
	note B_, 2
	note __, 2
;Bar 51
	octave 4
	note C#, 1
	note __, 1
	note D#, 1
	note __, 1
	note E_, 1
	note F#, 1
	note __, 2
	note C#, 1
	note __, 1
	note D#, 1
	note __, 1
	note E_, 1
	note F#, 1
	note __, 2
;Bar 52
	note F#, 4
	note E_, 4
	note F#, 1
	note G#, 1
	note __, 1
	note F#, 1
	note __, 1
	note D#, 2
	note __, 1
;Bar 53
	note E_, 1
	note __, 1
	note G#, 1
	note __, 1
	note F#, 1
	note __, 1
	note A_, 1
	note G#, 1
	note __, 8
;Bar 54
	note D#, 1
	note __, 1
	note F#, 1
	note __, 1
	note E_, 1
	note __, 1
	note G#, 1
	note F#, 1
	note __, 4
	octave 3
	note B_, 2
	note __, 2
;Bar 55
	octave 4
	note C#, 1
	note __, 1
	note D#, 1
	note __, 1
	note E_, 1
	note F#, 1
	note __, 2
	note C#, 1
	note __, 1
	note D#, 1
	note __, 1
	note E_, 1
	note F#, 1
	note __, 2
;Bar 56
	note F#, 4
	note E_, 4
	note F#, 1
	note G#, 1
	note __, 1
	note B_, 1
	note __, 1
	note F#, 2
	note __, 1
;Bar 57
	note C#, 2
	note __, 2
	note D#, 2
	note __, 2
	note E_, 2
	note __, 2
	note G#, 2
	note __, 2
;Bar 58
	note D#, 8
	note __, 2
	note E_, 2
	note D#, 2
	note C#, 2
;Bar 59
	octave 3
	note B_, 2
	note __, 2
	octave 4
	note C#, 2
	note __, 2
	note D#, 2
	note __, 2
	note F#, 2
	note __, 2
;Bar 60
	note C#, 8
	note __, 2
	note D#, 2
	note C#, 2
	octave 3
	note B_, 2
;Bar 61
	note A_, 2
	note G#, 2
	note A_, 2
	note G#, 1
	note F#, 1
	note __, 8
;Bar 62
	note B_, 2
	note A#, 2
	note B_, 2
	note A_, 1
	note G#, 1
	note __, 4
	note G#, 2
	note __, 2
;Bar 63
	note F#, 2
	note F_, 2
	note F#, 2
	note G#, 2
	note A_, 2
	note E_, 2
	note C#, 2
	note E_, 2
;Bar 64
	note F#, 2
	note __, 6
	note D#, 8
	endchannel

; ============================================================================================================

Music_Koukan_Ch3:
	notetype 12, $10
;Bar 1
	octave 4
	intensity $20
	note E_, 2
	note __, 2
	octave 3
	note B_, 2
	octave 4
	note E_, 2
	note __, 2
	note E_, 2
	note G#, 2
	note E_, 2
;Bar 2
	note D#, 2
	note __, 2
	octave 3
	note B_, 2
	octave 4
	note D#, 2
	note __, 2
	note D#, 2
	note G#, 2
	note D#, 2
;Bar 3
	note C#, 2
	note __, 2
	octave 3
	note A_, 2
	octave 4
	note C#, 2
	note __, 2
	octave 3
	note A_, 2
	octave 4
	note C#, 2
	octave 3
	note A_, 2
;Bar 4
	octave 4
	note D#, 4
	note C#, 2
	octave 3
	note B_, 4
	note B_, 2
	octave 4
	note C#, 2
	note D#, 2
;Bar 5
	note E_, 2
	note __, 2
	octave 3
	note B_, 2
	octave 4
	note E_, 2
	note __, 2
	note E_, 2
	note G#, 2
	note E_, 2
;Bar 6
	note D#, 2
	note __, 2
	octave 3
	note B_, 2
	octave 4
	note D#, 2
	note __, 2
	note D#, 2
	note G#, 2
	note D#, 2
;Bar 7
	note C#, 2
	note __, 2
	octave 3
	note A_, 2
	octave 4
	note C#, 2
	note __, 2
	octave 3
	note A_, 2
	octave 4
	note C#, 2
	octave 3
	note A_, 2
;Bar 8
	octave 4
	note D#, 4
	note C#, 4
	note D#, 1
	note E_, 1
	note __, 1
	note F#, 1
	note __, 1
	note C#, 2
	note __, 1
;Bar 9
	note C#, 4
	note D#, 4
	note E_, 4
	note G#, 4
;Bar 10
	note F#, 4
	note __, 2
	note F#, 4
	note E_, 2
	note D#, 2
	note E_, 2
;Bar 11
	octave 3
	note B_, 4
	octave 4
	note C#, 4
	note D#, 4
	note F#, 4
;Bar 12
	note E_, 4
	note __, 2
	note E_, 4
	note E_, 2
	note D#, 2
	note C#, 2
;Bar 13
	note E_, 2
	note D#, 2
	note E_, 2
	note F_, 1
	note F#, 1
	note __, 4
	note D#, 2
	note __, 2
;Bar 14
	note F#, 2
	note D#, 2
	note F#, 2
	note G_, 1
	note G#, 1
	note __, 4
	note E_, 2
	note __, 2
;Bar 15
	note A_, 12
	note G#, 4
;Bar 16
	note F#, 2
	note __, 6
	note D#, 2
	note __, 6
;Bar 17
	note E_, 2
	note __, 2
	octave 3
	note B_, 2
	octave 4
	note E_, 2
	note __, 2
	note E_, 2
	note G#, 2
	note E_, 2
;Bar 18
	note D#, 2
	note __, 2
	octave 3
	note B_, 2
	octave 4
	note D#, 2
	note __, 2
	note D#, 2
	note G#, 2
	note D#, 2
;Bar 19
	note C#, 2
	note __, 2
	octave 3
	note A_, 2
	octave 4
	note C#, 2
	note __, 2
	octave 3
	note A_, 2
	octave 4
	note C#, 2
	octave 3
	note A_, 2
;Bar 20
	octave 4
	note D#, 4
	note C#, 2
	octave 3
	note B_, 4
	note B_, 2
	octave 4
	note C#, 2
	note D#, 2
;Bar 21
	note E_, 2
	note __, 2
	octave 3
	note B_, 2
	octave 4
	note E_, 2
	note __, 2
	note E_, 2
	note G#, 2
	note E_, 2
;Bar 22
	note D#, 2
	note __, 2
	octave 3
	note B_, 2
	octave 4
	note D#, 2
	note __, 2
	note D#, 2
	note G#, 2
	note D#, 2
;Bar 23
	note C#, 2
	note __, 2
	octave 3
	note A_, 2
	octave 4
	note C#, 2
	note __, 2
	octave 3
	note A_, 2
	octave 4
	note C#, 2
	octave 3
	note A_, 2
;Bar 24
	octave 4
	note D#, 4
	note C#, 4
	note D#, 1
	note E_, 1
	note __, 1
	note F#, 1
	note __, 1
	note C#, 2
	note __, 1
;Bar 25
	note C#, 4
	note D#, 4
	note E_, 4
	note G#, 4
;Bar 26
	note F#, 4
	note __, 2
	note F#, 4
	note E_, 2
	note D#, 2
	note E_, 2
;Bar 27
	octave 3
	note B_, 4
	octave 4
	note C#, 4
	note D#, 4
	note F#, 4
;Bar 28
	note E_, 4
	note __, 2
	note E_, 4
	note E_, 2
	note D#, 2
	note C#, 2
;Bar 29
	note E_, 2
	note D#, 2
	note E_, 2
	note F_, 1
	note F#, 1
	note __, 4
	note D#, 2
	note __, 2
;Bar 30
	note F#, 2
	note D#, 2
	note F#, 2
	note G_, 1
	note G#, 1
	note __, 4
	note E_, 2
	note __, 2
;Bar 31
	note A_, 12
	note G#, 4
;Bar 32
	note F#, 2
	note __, 6
	note D#, 2
	note __, 6
;Bar 33
	note E_, 2
	note __, 2
	octave 3
	note B_, 2
	octave 4
	note E_, 2
	note __, 2
	note E_, 2
	note G#, 2
	note E_, 2
;Bar 34
	note D#, 2
	note __, 2
	octave 3
	note B_, 2
	octave 4
	note D#, 2
	note __, 2
	note D#, 2
	note G#, 2
	note D#, 2
;Bar 35
	note C#, 2
	note __, 2
	octave 3
	note A_, 2
	octave 4
	note C#, 2
	note __, 2
	octave 3
	note A_, 2
	octave 4
	note C#, 2
	octave 3
	note A_, 2
;Bar 36
	octave 4
	note D#, 4
	note C#, 2
	octave 3
	note B_, 4
	note B_, 2
	octave 4
	note C#, 2
	note D#, 2
;Bar 37
	note E_, 2
	note __, 2
	octave 3
	note B_, 2
	octave 4
	note E_, 2
	note __, 2
	note E_, 2
	note G#, 2
	note E_, 2
;Bar 38
	note D#, 2
	note __, 2
	octave 3
	note B_, 2
	octave 4
	note D#, 2
	note __, 2
	note D#, 2
	note G#, 2
	note D#, 2
;Bar 39
	note C#, 2
	note __, 2
	octave 3
	note A_, 2
	octave 4
	note C#, 2
	note __, 2
	octave 3
	note A_, 2
	octave 4
	note C#, 2
	octave 3
	note A_, 2
;Bar 40
	octave 4
	note D#, 4
	note C#, 4
	note D#, 1
	note E_, 1
	note __, 1
	note F#, 1
	note __, 1
	note C#, 2
	note __, 1
;Bar 41
	note C#, 4
	note D#, 4
	note E_, 4
	note G#, 4
;Bar 42
	note F#, 4
	note __, 2
	note F#, 4
	note E_, 2
	note D#, 2
	note E_, 2
;Bar 43
	octave 3
	note B_, 4
	octave 4
	note C#, 4
	note D#, 4
	note F#, 4
;Bar 44
	note E_, 4
	note __, 2
	note E_, 4
	note E_, 2
	note D#, 2
	note C#, 2
;Bar 45
	note E_, 2
	note D#, 2
	note E_, 2
	note F_, 1
	note F#, 1
	note __, 4
	note D#, 2
	note __, 2
;Bar 46
	note F#, 2
	note D#, 2
	note F#, 2
	note G_, 1
	note G#, 1
	note __, 4
	note E_, 2
	note __, 2
;Bar 47
	note A_, 12
	note G#, 4
;Bar 48
	note F#, 2
	note __, 6
	note D#, 2
	note __, 6
;Bar 49
	note E_, 2
	note __, 2
	octave 3
	note B_, 2
	octave 4
	note E_, 2
	note __, 2
	note E_, 2
	note G#, 2
	note E_, 2
;Bar 50
	note D#, 2
	note __, 2
	octave 3
	note B_, 2
	octave 4
	note D#, 2
	note __, 2
	note D#, 2
	note G#, 2
	note D#, 2
;Bar 51
	note C#, 2
	note __, 2
	octave 3
	note A_, 2
	octave 4
	note C#, 2
	note __, 2
	octave 3
	note A_, 2
	octave 4
	note C#, 2
	octave 3
	note A_, 2
;Bar 52
	octave 4
	note D#, 4
	note C#, 2
	octave 3
	note B_, 4
	note B_, 2
	octave 4
	note C#, 2
	note D#, 2
;Bar 53
	note E_, 2
	note __, 2
	octave 3
	note B_, 2
	octave 4
	note E_, 2
	note __, 2
	note E_, 2
	note G#, 2
	note E_, 2
;Bar 54
	note D#, 2
	note __, 2
	octave 3
	note B_, 2
	octave 4
	note D#, 2
	note __, 2
	note D#, 2
	note G#, 2
	note D#, 2
;Bar 55
	note C#, 2
	note __, 2
	octave 3
	note A_, 2
	octave 4
	note C#, 2
	note __, 2
	octave 3
	note A_, 2
	octave 4
	note C#, 2
	octave 3
	note A_, 2
;Bar 56
	octave 4
	note D#, 4
	note C#, 4
	note D#, 1
	note E_, 1
	note __, 1
	note F#, 1
	note __, 1
	note C#, 2
	note __, 1
;Bar 57
	note C#, 4
	note D#, 4
	note E_, 4
	note G#, 4
;Bar 58
	note F#, 4
	note __, 2
	note F#, 4
	note E_, 2
	note D#, 2
	note E_, 2
;Bar 59
	octave 3
	note B_, 4
	octave 4
	note C#, 4
	note D#, 4
	note F#, 4
;Bar 60
	note E_, 4
	note __, 2
	note E_, 4
	note E_, 2
	note D#, 2
	note C#, 2
;Bar 61
	note E_, 2
	note D#, 2
	note E_, 2
	note F_, 1
	note F#, 1
	note __, 4
	note D#, 2
	note __, 2
;Bar 62
	note F#, 2
	note D#, 2
	note F#, 2
	note G_, 1
	note G#, 1
	note __, 4
	note E_, 2
	note __, 2
;Bar 63
	note A_, 12
	note G#, 4
;Bar 64
	note F#, 2
	note __, 6
	note D#, 8
	endchannel

; ============================================================================================================

Music_Koukan_Ch4:
	togglenoise 1 ; WARNING: this might sound bad.
	notetype 12
;Bar 1
	note A#, 6
	note A#, 6
	note A#, 4
;Bar 2
	note A#, 6
	note A#, 6
	note A#, 2
	note A#, 2
;Bar 3
	note A#, 6
	note A#, 6
	note A#, 4
;Bar 4
	note A#, 6
	note A#, 6
	note A#, 2
	note A#, 2
;Bar 5
	note A#, 6
	note A#, 6
	note A#, 4
;Bar 6
	note A#, 6
	note A#, 6
	note A#, 4
;Bar 7
	note A#, 6
	note A#, 6
	note A#, 4
;Bar 8
	note A#, 6
	note A#, 6
	note A#, 4
;Bar 9
	note A#, 6
	note A#, 6
	note A#, 4
;Bar 10
	note A#, 6
	note A#, 6
	note A#, 2
	note A#, 2
;Bar 11
	note A#, 6
	note A#, 6
	note A#, 4
;Bar 12
	note A#, 6
	note A#, 6
	note A#, 4
;Bar 13
	note A#, 6
	note A#, 6
	note A#, 4
;Bar 14
	note A#, 6
	note A#, 6
	note A#, 4
;Bar 15
	note A#, 6
	note A#, 6
	note A#, 4
;Bar 16
	note A#, 6
	note A#, 6
	note A#, 2
	note A#, 2
;Bar 17
	note G#, 6
	note G#, 6
	note A_, 4
;Bar 18
	note G#, 6
	note G#, 6
	note A_, 2
	note G#, 2
;Bar 19
	note G#, 6
	note G#, 6
	note A_, 4
;Bar 20
	note G#, 6
	note G#, 6
	note A_, 4
;Bar 21
	note G#, 6
	note G#, 6
	note A_, 4
;Bar 22
	note G#, 6
	note G#, 6
	note A_, 2
	note A_, 2
;Bar 23
	note G#, 6
	note G#, 6
	note A_, 4
;Bar 24
	note G#, 6
	note G#, 6
	note A_, 2
	note G#, 2
;Bar 25
	note G#, 6
	note G#, 6
	note A_, 4
;Bar 26
	note G#, 6
	note G#, 6
	note A_, 4
;Bar 27
	note G#, 6
	note G#, 6
	note A_, 2
	note A_, 2
;Bar 28
	note G#, 6
	note G#, 6
	note A_, 4
;Bar 29
	note G#, 6
	note G#, 6
	note A_, 4
;Bar 30
	note G#, 6
	note G#, 6
	note A_, 2
	note G#, 2
;Bar 31
	note G#, 6
	note G#, 6
	note G#, 4
;Bar 32
	note G#, 6
	note A#, 6
	note A#, 4
;Bar 33
	note A#, 6
	note A#, 6
	note A#, 4
;Bar 34
	note A#, 6
	note A#, 6
	note A#, 2
	note A#, 2
;Bar 35
	note A#, 6
	note A#, 6
	note A#, 4
;Bar 36
	note A#, 6
	note A#, 6
	note A#, 2
	note A#, 2
;Bar 37
	note A#, 6
	note A#, 6
	note A#, 4
;Bar 38
	note A#, 6
	note A#, 6
	note A#, 4
;Bar 39
	note A#, 6
	note A#, 6
	note A#, 4
;Bar 40
	note A#, 6
	note A#, 6
	note A#, 4
;Bar 41
	note A#, 6
	note A#, 6
	note A#, 4
;Bar 42
	note A#, 6
	note A#, 6
	note A#, 2
	note A#, 2
;Bar 43
	note A#, 6
	note A#, 6
	note A#, 4
;Bar 44
	note A#, 6
	note A#, 6
	note A#, 4
;Bar 45
	note A#, 6
	note A#, 6
	note A#, 4
;Bar 46
	note A#, 6
	note A#, 6
	note A#, 4
;Bar 47
	note A#, 6
	note A#, 6
	note A#, 4
;Bar 48
	note A#, 6
	note A#, 6
	note A#, 2
	note A#, 2
;Bar 49
	note G#, 6
	note G#, 6
	note A_, 4
;Bar 50
	note G#, 6
	note G#, 6
	note A_, 2
	note G#, 2
;Bar 51
	note G#, 6
	note G#, 6
	note A_, 4
;Bar 52
	note G#, 6
	note G#, 6
	note A_, 4
;Bar 53
	note G#, 6
	note G#, 6
	note A_, 4
;Bar 54
	note G#, 6
	note G#, 6
	note A_, 2
	note A_, 2
;Bar 55
	note G#, 6
	note G#, 6
	note A_, 4
;Bar 56
	note G#, 6
	note G#, 6
	note A_, 2
	note G#, 2
;Bar 57
	note G#, 6
	note G#, 6
	note A_, 4
;Bar 58
	note G#, 6
	note G#, 6
	note A_, 4
;Bar 59
	note G#, 6
	note G#, 6
	note A_, 2
	note A_, 2
;Bar 60
	note G#, 6
	note G#, 6
	note A_, 4
;Bar 61
	note G#, 6
	note G#, 6
	note A_, 4
;Bar 62
	note G#, 6
	note G#, 6
	note A_, 2
	note G#, 2
;Bar 63
	note G#, 6
	note G#, 6
	note G#, 4
;Bar 64
	note G#, 6
	note A#, 6
	note A#, 4
	endchannel

; ============================================================================================================

